HIERARCHY
ROOT pelvis
{
  OFFSET 0 100 0
  CHANNELS 6 Xposition Yposition Zposition Zrotation Xrotation Yrotation
  JOINT pelvis_right_femur
  {
    OFFSET -10.78128 -3.44521 -0.5502486
    CHANNELS 3 Zrotation Xrotation Yrotation
    JOINT right_femur_tibia
    {
      OFFSET -0.8047443 -44.0398 -0.1307829
      CHANNELS 3 Zrotation Xrotation Yrotation
      JOINT right_tibia_foot
      {
        OFFSET 3.006224 -47.83518 -5
        CHANNELS 3 Zrotation Xrotation Yrotation
        End Site
        {
          OFFSET 0 -5 15
        }
      }
    }
  }
  JOINT pelvis_left_femur
  {
    OFFSET 10.78128 -3.44521 -0.5502486
    CHANNELS 3 Zrotation Xrotation Yrotation
    JOINT left_femur_tibia
    {
      OFFSET 0.8047443 -44.0398 -0.1307829
      CHANNELS 3 Zrotation Xrotation Yrotation
      JOINT left_tibia_foot
      {
        OFFSET -4.370144 -48.10324 -4.275266
        CHANNELS 3 Zrotation Xrotation Yrotation
        End Site
        {
          OFFSET 0 -5 15
        }
      }
    }
  }
  JOINT pelvis_spine1
  {
    OFFSET 0 6.468898 -3.129235
    CHANNELS 3 Zrotation Xrotation Yrotation
    JOINT spine1
    {
      OFFSET 0 23.15396 4.99043
      CHANNELS 3 Zrotation Xrotation Yrotation
      JOINT spine2
      {
        OFFSET 0 20.79997 -5.064912
        CHANNELS 3 Zrotation Xrotation Yrotation
        JOINT neck
        {
          OFFSET 0 14.38658 9.616178
          CHANNELS 3 Zrotation Xrotation Yrotation
          End Site
          {
            OFFSET 0 20 0
          }
        }
      }
      JOINT right_manubrium
      {
        OFFSET -5.722621 16.35077 3.967754
        CHANNELS 3 Zrotation Xrotation Yrotation
        JOINT right_clavicle
        {
          OFFSET -13.16364 1.694482 -4.693211
          CHANNELS 3 Zrotation Xrotation Yrotation
          JOINT right_humerus
          {
            OFFSET -28.5034 -0.3100689 -2.792744
            CHANNELS 3 Zrotation Xrotation Yrotation
            JOINT right_radius
            {
              OFFSET -25.15693 0.02248979 -1.271978
              CHANNELS 3 Zrotation Xrotation Yrotation
              End Site
              {
                OFFSET -15 0 0
              }
            }
          }
        }
      }
      JOINT left_manubrium
      {
        OFFSET 5.722621 16.35077 3.967754
        CHANNELS 3 Zrotation Xrotation Yrotation
        JOINT left_clavicle
        {
          OFFSET 13.16364 1.694482 -4.693211
          CHANNELS 3 Zrotation Xrotation Yrotation
          JOINT left_humerus
          {
            OFFSET 29.39168 -1.063119 -2.237045
            CHANNELS 3 Zrotation Xrotation Yrotation
            JOINT left_radius
            {
              OFFSET 24.59957 -0.9528479 0.9047498
              CHANNELS 3 Zrotation Xrotation Yrotation
              End Site
              {
                OFFSET 15 -0 -0
              }
            }
          }
        }
      }
    }
  }
}
MOTION
Frames: 7
Frame Time: 0.0416666666667
49.67441 105.9584 273.8349 3.70992 -10.23961 1.557966 -2.85479 11.92068 5.190139 -0 53.68312 -0 6.438424 -7.584835 -4.541689 -6.680746 -6.238462 -10.33401 -0 25.24613 -0 -7.333009 -9.278559 17.34916 -2.604822 -1.599742 7.143985 -2.204275 8.877108 -2.587725 2.044271 23.17354 5.818825 1.094529 -14.88814 8.44165 1.767514 -17.9292 9.925117 85.71106 21.26773 -11.49399 -0 0 20.34521 -24.57936 13.70832 11.87373 4.10676 -13.09331 -3.569673 -90.69489 25.26514 21.14012 0 0 -9.375 -3.977406 6.238525 17.81989
50.5713 107.4991 279.6399 3.499673 -10.61741 2.576108 -2.28881 4.795708 4.10033 -0 55.33402 -0 5.613124 -7.712967 -5.693872 -6.731323 -0.3402654 -10.60954 -0 23.38228 -0 -7.184313 -10.62491 16.67272 -2.454748 -0.9794863 5.687789 -1.892967 8.813314 -3.372588 1.856008 23.6509 6.037956 0.7917169 -14.57208 8.782448 1.95024 -16.96208 9.766969 87.22263 21.77352 -13.17022 -0 0 18.32902 -23.62357 13.7751 11.31138 4.152585 -14.15764 -3.956088 -88.49957 25.73911 17.31146 0 0 -11.30499 -3.194329 6.718251 16.88976
51.39085 108.6658 285.0777 3.296629 -10.50353 3.79853 -1.862191 -2.251253 3.318014 -0 52.63302 -0 4.755927 -7.658898 -6.586256 -6.522835 5.069002 -10.85763 -0 20.83122 -0 -7.157537 -11.91361 15.85356 -2.335842 -0.5760461 4.218107 -1.496473 8.587165 -4.398709 1.830907 24.01809 6.163832 0.5817484 -14.27647 9.128416 1.667617 -15.9394 9.392579 88.7192 22.16289 -14.9353 -0 0 16.69266 -22.69299 13.7292 10.82625 4.435252 -15.26679 -4.335301 -86.27792 26.07756 13.17147 0 0 -13.6894 -2.335866 7.263213 15.76304
52.12692 109.1555 290.3936 3.226551 -10.0003 5.208583 -1.792613 -8.706808 2.871029 -0 46.12949 -0 3.826446 -7.444531 -7.31393 -6.254934 9.865659 -11.11511 -0 18.22707 -0 -7.171624 -13.32209 14.92911 -2.396786 -0.3716893 2.930129 -1.051675 8.216434 -5.526661 2.003367 24.21421 6.126963 0.4917042 -14.06291 9.406815 1.02904 -14.86504 8.864283 90.03092 22.41357 -16.73967 -0 0 15.24788 -21.81317 13.56595 10.34186 4.93032 -16.40979 -4.661004 -84.08952 26.27857 8.929721 0 0 -16.39832 -1.430672 7.864679 14.45349
52.79447 108.8942 295.8655 3.313699 -9.303023 6.540138 -2.149467 -14.23571 2.60131 -0 37.08688 -0 2.756205 -7.40503 -7.973258 -6.058906 14.09351 -11.32337 -0 16.29034 -0 -7.178156 -14.90762 14.00382 -2.651603 -0.295753 1.967301 -0.6150168 7.756518 -6.527056 2.313865 24.24535 5.923304 0.4984379 -13.99349 9.558181 0.2711894 -13.76017 8.346123 91.08628 22.57198 -18.50442 -0 0 13.72546 -20.94774 13.32189 9.75619 5.548318 -17.5759 -4.871461 -82.00759 26.34532 4.817565 0 0 -19.24061 -0.4710341 8.51669 13.002
53.38376 107.9897 301.5037 3.487495 -8.586139 7.511245 -2.688873 -18.59306 2.212953 -0 27.38619 -0 1.543982 -7.851763 -8.574448 -5.993869 17.76851 -11.38303 -0 15.46482 -0 -7.209149 -16.53004 13.17652 -2.956046 -0.2652231 1.439995 -0.2293879 7.297614 -7.140139 2.642073 24.16382 5.632061 0.5444325 -14.09042 9.582512 -0.3405041 -12.64648 8.0067 91.94263 22.7023 -20.16162 -0 0 11.88282 -20.00097 13.04661 8.972996 6.141216 -18.74618 -4.896448 -80.15834 26.28436 1.075102 0 0 -21.97747 0.543457 9.191678 11.48951
53.86035 106.7105 307.2877 3.595261 -7.967765 7.995821 -2.881973 -21.70393 1.66102 -0 19.04007 -0 0.2684431 -8.75315 -9.109757 -5.961655 20.84534 -11.28371 -0 15.96657 -0 -7.347908 -17.84065 12.52341 -3.143387 -0.1985913 1.252773 0.1061067 6.905811 -7.338978 2.892418 24.06759 5.330677 0.5832341 -14.31045 9.502055 -0.6495164 -11.65146 7.886582 92.64077 22.8539 -21.5797 -0 0 9.727711 -18.93312 12.7746 8.007043 6.590134 -19.84905 -4.734273 -78.66979 26.1382 -2.033263 0 0 -24.31032 1.563721 9.841391 10.03419
